<svg width="124" height="24" viewBox="0 0 124 24" fill="none" xmlns="http://www.w3.org/2000/svg">
<g clip-path="url(#clip0_4799_84208)">
<path d="M32.2103 9.39844H17.4789C16.2729 9.39844 15.2187 10.2069 14.906 11.3728L14.1333 14.2672C14.0886 14.437 14.2137 14.6022 14.3923 14.6022H24.2014L23.0713 18.7965H14.9686C13.7625 18.7965 12.7084 19.605 12.3957 20.7709L11.6185 23.6653C11.5738 23.8351 11.6989 24.0003 11.8775 24.0003H22.5129C26.1266 24.0003 29.2935 21.5704 30.2271 18.0819L32.4649 9.73791C32.5096 9.56817 32.3845 9.4029 32.2059 9.4029" fill="#FC4C02"/>
<path d="M11.9219 5.20826H33.4741C33.5947 5.20826 33.7019 5.12786 33.7332 5.01173L34.9839 0.335008C35.0285 0.165271 34.9035 0 34.7248 0H18.7069C15.5266 0 12.7438 2.13512 11.9219 5.20826Z" fill="#FC4C02"/>
<path d="M11.922 5.20703C7.81256 5.20703 4.21681 7.9675 3.15371 11.934L0.00910024 23.6638C-0.0355676 23.8335 0.0895023 23.9988 0.268173 23.9988H6.68247C6.80307 23.9988 6.91027 23.9184 6.94154 23.8022L11.922 5.20703Z" fill="#FC4C02"/>
<path d="M38.0363 5.91848L33.2747 23.665C33.2301 23.8347 33.3551 24 33.5338 24H53.1162C56.7298 24 59.8967 21.5701 60.8303 18.0815L65.5874 0.335008C65.6321 0.165271 65.5025 0 65.3283 0H45.7504C42.1368 0 38.9743 2.42546 38.0363 5.91848ZM53.6745 18.7962H41.5427L45.1832 5.20826H57.3149L53.6745 18.7962Z" fill="#FC4C02"/>
<path d="M96.0051 5.91848L91.2435 23.665C91.1988 23.8347 91.3239 24 91.5025 24H111.085C114.699 24 117.865 21.5701 118.799 18.0815L123.556 0.335008C123.601 0.165271 123.476 0 123.297 0H103.715C100.101 0 96.9386 2.42546 96.0006 5.91848M111.639 18.7962H99.507L103.152 5.20826H115.279L111.639 18.7962Z" fill="#FC4C02"/>
<path d="M74.14 11.3728L73.2734 14.6022H88.934C89.0546 14.6022 89.1618 14.5218 89.193 14.4057L90.4393 9.73345C90.4839 9.56371 90.3589 9.39844 90.1847 9.39844H76.7173C75.5113 9.39844 74.4571 10.2069 74.1445 11.3728" fill="#FC4C02"/>
<path d="M68.6379 5.91848L63.8763 23.665C63.8316 23.8347 63.9567 24 64.1309 24H70.5452C70.6658 24 70.773 23.9196 70.8043 23.8035L75.7892 5.20826H91.4408C91.5614 5.20826 91.6686 5.12786 91.6999 5.01173L92.9595 0.335008C93.0042 0.165271 92.8791 0 92.7004 0H76.352C72.7384 0 69.5759 2.42546 68.6379 5.91848Z" fill="#FC4C02"/>
</g>
<defs>
<clipPath id="clip0_4799_84208">
<rect width="123.564" height="24" fill="white"/>
</clipPath>
</defs>
</svg>
